OpenSim_Sub04_CSStiffKnee_RCS.mot
version=1
nRows=54
nColumns=11
inDegrees=no
endheader
time	Top_Thigh	Med_Thigh	Bot_Thigh	Top_Shank	2nd_Top_Shank	2nd_Bot_Shank	Bot_Shank	BNOx	BNOy	BNOZ
18.53000000	1393.78560383	1342.16659752	1365.71756248	1082.30456512	1225.19769721	1123.82018677	1042.13888546	34.09360241	-71.73648307	149.92549364
18.54000000	1392.75902534	1340.91904336	1348.04299131	1080.90913254	1224.10016619	1123.28285085	1041.74443297	35.49439115	-71.21191221	147.55150575
18.55000000	1390.87909829	1338.59140474	1307.62509070	1079.77587707	1222.39765531	1122.05463400	1041.04863571	37.05993422	-70.55560570	144.97899999
18.56000000	1388	1335	1240	1079	1220	1120	1040	38.81000000	-69.75000000	142.19000000
18.57000000	1384.06842006	1330.08568180	1143.26701212	1078.64324331	1216.88787019	1117.06503611	1038.58277462	40.76047572	-68.78314831	139.18868653
18.58000000	1379.40109709	1324.28744018	1025.77803408	1078.63351178	1213.32527385	1113.52232338	1036.92417804	42.91172406	-67.66557086	136.06786861
18.59000000	1374.40728193	1318.16879954	898.44812641	1078.86525091	1209.64705346	1109.72606632	1035.18717112	45.26022660	-66.41340465	132.94251235
18.60000000	1369.49622545	1312.29328424	772.19234966	1079.23290619	1206.18805153	1106.03046945	1033.53471477	47.80246487	-65.04278667	129.92758387
18.61000000	1365.07717851	1307.22441868	657.92576437	1079.63092310	1203.28311054	1102.78973727	1032.12976986	50.53492045	-63.56985391	127.13804928
18.62000000	1361.55939198	1303.52572725	566.56343109	1079.95374714	1201.26707296	1100.35807429	1031.13529728	53.45407488	-62.01074338	124.68887470
18.63000000	1359.29423396	1301.67714252	507.51223003	1080.10845715	1200.42239641	1099.03636763	1030.68762501	56.54266630	-60.38540318	122.67286155
18.64000000	1358.20528276	1301.54080149	479.03264624	1080.09550043	1200.64438133	1098.73145546	1030.72624727	59.68186043	-58.74194794	121.01900039
18.65000000	1358.02438009	1302.70194331	474.38931743	1079.95717231	1201.65480322	1099.17356205	1031.10243682	62.70729794	-57.14111659	119.58286129
18.66000000	1358.48246321	1304.74450104	486.82331600	1079.73596550	1203.17461905	1100.09207861	1031.66705026	65.45440473	-55.64370763	118.21966797
18.67000000	1359.31046939	1307.25240770	509.57571435	1079.47437270	1204.92478581	1101.21639632	1032.27094420	67.75860673	-54.31051955	116.78464416
18.68000000	1360.23933590	1309.80959634	535.88758488	1079.21488663	1206.62626046	1102.27590639	1032.76497524	69.45532984	-53.20235084	115.13301359
18.69000000	1361	1312	559	1079	1208	1103	1033	70.38000000	-52.38000000	113.12000000
18.70000000	1361.38357069	1313.49443665	573.60525313	1078.86286833	1208.82793700	1103.18652855	1032.86524189	70.45452226	-51.89460122	110.73775911
18.71000000	1361.42184383	1314.31126398	580.20052181	1078.79929836	1209.13590649	1102.90718424	1032.40339155	69.94671831	-51.75863151	108.52617464
18.72000000	1361.20678702	1314.55572459	580.73420461	1078.79575963	1209.01071911	1102.30211947	1031.69550643	69.21088898	-51.97490363	107.16206232
18.73000000	1360.83036784	1314.33306111	577.15470011	1078.83872170	1208.53918549	1101.51148663	1030.82264397	68.60133509	-52.54623029	107.32223786
18.74000000	1360.38455388	1313.74851613	571.41040687	1078.91465411	1207.80811626	1100.67543811	1029.86586163	68.47235749	-53.47542422	109.68351701
18.75000000	1359.96129859	1312.90732345	565.44936893	1079.01002574	1206.90431556	1099.93409818	1028.90620567	69.17798609	-54.76527996	114.92227268
18.76000000	1359.63378334	1311.90300130	560.74916394	1079.11041819	1205.90595843	1099.39025990	1028.00988246	70.71275902	-56.39444202	123.12730952
18.77000000	1359.41941087	1310.79425677	557.38944275	1079.19877666	1204.86557978	1099.03579169	1027.19900368	72.00303338	-58.26979641	132.64155279
18.78000000	1359.32527128	1309.63336089	555.19140101	1079.25755893	1203.83097403	1098.84205370	1026.48752858	71.77767607	-60.28496211	141.48514155
18.79000000	1359.35845469	1308.47258469	553.97623440	1079.26922276	1202.84993562	1098.78040612	1025.88941640	68.76555396	-62.33355810	147.67821488
18.80000000	1359.52605123	1307.36419921	553.56513860	1079.21622591	1201.97025896	1098.82220910	1025.41862639	61.69553395	-64.30920336	149.24091182
18.81000000	1359.83515100	1306.36047549	553.77930928	1079.08102617	1201.23973850	1098.93882283	1025.08911778	49.29648292	-66.10551685	144.19337145
18.82000000	1360.29015498	1305.51202238	554.44220381	1078.84724445	1200.70332054	1099.10212410	1024.91346351	30.45364580	-67.62057128	130.69564432
18.83000000	1360.85522664	1304.84457771	555.41112115	1078.51590589	1200.36333511	1099.29172029	1024.88349311	6.39214641	-68.81908036	109.00127163
18.84000000	1361.46355452	1304.36473350	556.56941161	1078.10143345	1200.18930615	1099.49316975	1024.97506785	-19.86164802	-69.71705816	80.97536778
18.85000000	1362.04753037	1304.07858930	557.80109564	1077.61859472	1200.14991371	1099.69218394	1025.16363821	-45.23503604	-70.33183838	48.52450246
18.86000000	1362.53954596	1303.99224464	558.99019368	1077.08215728	1200.21383784	1099.87447428	1025.42465467	-66.65531619	-70.68075472	13.55524534
18.87000000	1362.87199305	1304.11179906	560.02072616	1076.50688873	1200.34975857	1100.02575223	1025.73356773	-81.04978700	-70.78114087	-22.02583391
18.88000000	1362.97726339	1304.44335210	560.77671353	1075.90755665	1200.52635597	1100.13172921	1026.06582787	-85.34574703	-70.65033054	-56.31216562
18.89000000	1362.78774875	1304.99300331	561.14217622	1075.29892864	1200.71231008	1100.17811668	1026.39688558	-76.47049480	-70.30565741	-87.39718010
18.90000000	1362.23584089	1305.76685221	561.00113467	1074.69577228	1200.87630094	1100.15062608	1026.70219135	-51.35132887	-69.76445520	-113.37430769
18.91000000	1361.25393157	1306.77099834	560.23760933	1074.11285517	1200.98700861	1100.03496884	1026.95719567	-6.91554777	-69.04405760	-132.33697872
18.92000000	1359.82117969	1308.01510741	558.85492922	1073.56804913	1201.01898308	1099.82296063	1027.14254125	58.64828298	-68.16955241	-142.72768555
18.93000000	1358.26238266	1309.53520116	557.73818852	1073.10216831	1200.99015699	1099.55153115	1027.27724463	137.83004663	-67.22333509	-145.56870739
18.94000000	1357.05725405	1311.37911426	558.16769111	1072.76630966	1200.93790717	1099.27783034	1027.39752161	218.94167957	-66.31348657	-143.03859149
18.95000000	1356.68623819	1313.59473707	561.42560509	1072.61161865	1200.89970221	1099.05910351	1027.53966909	290.27541090	-65.54820894	-137.32133921
18.96000000	1357.62977939	1316.22995995	568.79409853	1072.68924072	1200.91301066	1098.95259600	1027.73998401	340.12346971	-65.03570428	-130.60095190
18.97000000	1360.36812312	1319.33262565	581.55511859	1073.05030070	1201.01530040	1099.01554585	1028.03475663	356.78197705	-64.88413897	-125.06097153
18.98000000	1365.11762482	1322.88737996	600.69742107	1073.71852953	1201.24312917	1099.29556090	1028.45145107	333.71165096	-65.15429996	-122.27532067
18.99000000	1371.31052667	1326.69108751	626.33858362	1074.63626100	1201.63035035	1099.81163401	1028.99130566	279.71910703	-65.76619262	-122.00652085
19.00000000	1378.23410038	1330.50589509	658.43511642	1075.73077982	1202.21031729	1100.57746759	1029.65071004	206.44818108	-66.61379399	-123.68219344
19.01000000	1385.17561764	1334.09394951	696.94352968	1076.92937072	1203.01638339	1101.60676404	1030.42605383	125.54270893	-67.59108111	-126.72995978
19.02000000	1391.42235016	1337.21739755	741.82033360	1078.15931839	1204.08190199	1102.91322579	1031.31372663	48.64652639	-68.59203101	-130.57744124
19.03000000	1396.26617026	1339.64003889	793.01285919	1079.34828693	1205.43969449	1104.51009245	1032.30993447	-12.66516615	-69.51116014	-134.65479033
19.04000000	1399.35490170	1341.25355670	849.75824015	1080.45329381	1207.08142103	1106.37479752	1033.39667795	-52.12751573	-70.28471884	-138.58799503
19.05000000	1400.93973064	1342.16640560	910.08977647	1081.48111245	1208.92897064	1108.42408069	1034.53187852	-72.47707690	-70.91969937	-142.33499814
19.06000000	1401.33028809	1342.50803783	971.92415843	1082.44333589	1210.89747396	1110.56880250	1035.67112520	-77.32232822	-71.42994637	-145.88589731
